Coordinates
version=1
nRows=14
nColumns=33
inDegrees=yes

Units are S.I. units (second, meters, Newtons, ...)
Angles are in degrees.

endheader
time	ground_thorax_rot_x	ground_thorax_rot_y	ground_thorax_rot_z	ground_thorax_tx	ground_thorax_ty	ground_thorax_tz	clav_prot_r	clav_elev_r	scapula_abduction_r	scapula_elevation_r	scapula_upward_rot_r	scapula_winging_r	shoulder_elv_r	plane_of_elev_r	axial_rot_r	elbow_flexion_r	pro_sup_r	wrist_flex_r	wrist_dev_r	clav_prot_l	clav_elev_l	scapula_abduction_l	scapula_elevation_l	scapula_upward_rot_l	scapula_winging_l	shoulder_elv_l	plane_of_elev_l	axial_rot_l	elbow_flexion_l	pro_sup_l	wrist_flex_l	wrist_dev_l
     10.71000000	    -36.27353551	      3.18787958	     -2.11459613	     24.03124379	    813.98718963	    -45.61876099	     13.93389345	    -45.00000000	     45.00000000	    -45.00000000	     -0.61298799	   1706.50920061	   1510.13129429	     22.51862662	    179.99999979	   1799.32154025	    172.91311473	     13.39194001	     15.17962226	     12.79588076	     28.38447118	    -41.09054974	    -45.00000000	    -45.00000000	   2231.71492892	  -3859.45549245	     22.24301963	   -179.99999979	    703.28447722	     25.01030745	      2.50990481	     -5.77169528
     10.72000000	    -36.19388728	      3.90024520	     -2.75997901	     27.80094772	    812.05031388	    -45.47902080	     13.25642899	    -45.00000000	     45.00000000	    -45.00000000	      0.54551794	   1706.82727728	   1510.01601157	     22.45281122	    179.99999979	   1799.38255550	    173.80116753	     13.35555483	     15.04881187	     13.63343899	     28.47159342	    -41.86247743	    -45.00000000	    -45.00000000	   2231.62518109	  -3859.49093245	     22.34638236	   -179.99999979	    703.57234884	     28.36704163	      2.74993024	     -5.68125181
     10.73000000	    -36.14810151	      4.65477688	     -3.35240818	     31.58386175	    810.05309915	    -45.33281612	     12.42942848	    -45.00000000	     45.00000000	    -45.00000000	      1.86031250	   1706.94096573	   1509.76917605	     22.42133430	    179.99999979	   1799.46442104	    174.65525552	     13.30175942	     14.94387365	     14.43982064	     28.55710861	    -42.60523947	    -45.00000000	    -45.00000000	   2231.52307734	  -3859.39190975	     22.44607888	   -179.99999979	    703.89555731	     32.05900129	      2.96382125	     -5.54481555
     10.74000000	    -36.01237997	      5.51588322	     -4.15127355	     35.36990390	    808.00370346	    -45.18134831	     12.09107061	    -45.00000000	     45.00000000	    -45.00000000	      3.16877574	   1707.41595264	   1509.73790552	     22.23709780	    179.99999979	   1799.57077709	    175.43548405	     13.20368801	     14.85740668	     15.21177099	     28.61332585	    -43.48940116	    -45.00000000	    -45.00000000	   2231.40593216	  -3859.40861594	     22.49831298	   -179.99999979	    704.25407223	     35.56331651	      3.42455983	     -5.58783718
     10.75000000	    -35.95602850	      6.22609603	     -4.75895345	     39.15474258	    805.90652000	    -45.02712899	     11.63662806	    -45.00000000	     45.00000000	    -45.00000000	      4.37477888	   1707.79768049	   1509.56097710	     22.01170605	    179.99999979	   1799.72826431	    176.12681811	     13.11345787	     14.71923557	     16.03825479	     28.68177685	    -44.31042257	    -45.00000000	    -45.00000000	   2231.34959616	  -3859.47947189	     22.52358337	   -179.99999979	    704.59945536	     39.12487456	      3.79426050	     -5.57308567
     10.76000000	    -35.88184982	      6.98482306	     -5.40595585	     42.92827160	    803.77143567	    -44.87248230	     11.62256842	    -45.00000000	     45.00000000	    -45.00000000	      5.16653495	   1708.11386634	   1509.41954813	     21.98621259	    179.99999979	   1799.70065473	    176.79205197	     13.05103591	     14.69046311	     16.76763577	     28.73892344	    -45.00000000	    -45.00000000	    -45.00000000	   2231.18071702	  -3859.23569422	     22.52232280	   -179.99999979	    704.89010130	     42.61424787	      4.04248287	     -5.49401269
     10.77000000	    -35.86067334	      6.86992497	     -5.33748143	     46.67341431	    801.61108583	    -44.72076334	     10.97254361	    -45.00000000	     45.00000000	    -45.00000000	      5.40174091	   1708.64004860	   1509.32544680	     21.80515704	    179.99999979	   1800.02645996	    177.34177058	     12.91011815	     14.46257861	     16.99222916	     28.65451117	    -45.00000000	    -45.00000000	    -45.00000000	   2230.85775889	  -3859.43224997	     22.63460410	   -179.99999979	    705.42780721	     45.97010675	      4.26941034	     -5.44746310
     10.78000000	    -35.86104005	      7.00624253	     -5.38237441	     50.37457280	    799.43280982	    -44.56768697	     10.64882182	    -45.00000000	     45.00000000	    -45.00000000	      5.77058872	   1708.88318278	   1509.10456593	     21.78146433	    179.99999979	   1800.30311490	    177.83292869	     12.76020255	     14.37159704	     17.23088273	     28.58177988	    -45.00000000	    -45.00000000	    -45.00000000	   2230.53880825	  -3859.20408857	     22.73380885	   -179.99999979	    705.78468748	     49.33722095	      4.44852681	     -5.30280773
     10.79000000	    -35.85502199	      7.04336286	     -5.44727149	     54.00535957	    797.24836572	    -44.40841077	     10.58505702	    -45.00000000	     45.00000000	    -45.00000000	      5.79671008	   1709.35541093	   1508.96530274	     21.67443756	    179.99999979	   1800.45955499	    178.26750326	     12.65605318	     14.25175056	     17.46292087	     28.49876691	    -45.00000000	    -45.00000000	    -45.00000000	   2230.20800119	  -3859.11778048	     22.75247835	   -179.99999979	    706.16065167	     52.47171090	      4.64713686	     -5.20561189
     10.80000000	    -35.83046896	      7.09934017	     -5.48348136	     57.53603231	    795.06981143	    -44.23592410	     10.52238470	    -45.00000000	     45.00000000	    -45.00000000	      5.84940624	   1709.79696857	   1508.85666411	     21.54823393	    179.99999979	   1800.65410530	    178.63127192	     12.53882605	     14.11348072	     17.79199819	     28.44231118	    -45.00000000	    -45.00000000	    -45.00000000	   2229.88764705	  -3859.04938045	     22.81370216	   -179.99999979	    706.51718013	     55.44840318	      4.83036201	     -5.10322095
     10.81000000	    -35.81953797	      7.17547454	     -5.54753094	     60.94804177	    792.90895719	    -44.04802583	     10.37016294	    -45.00000000	     45.00000000	    -45.00000000	      5.87157394	   1710.22123112	   1508.72862912	     21.45427375	    179.99999979	   1800.84999046	    178.98803673	     12.41425713	     14.01038938	     17.98746042	     28.35175226	    -45.00000000	    -45.00000000	    -45.00000000	   2229.53201584	  -3858.95969614	     22.83454340	   -179.99999979	    706.90665695	     58.34120311	      5.04579774	     -5.04068390
     10.82000000	    -35.80112394	      7.26101358	     -5.60259788	     64.22494177	    790.77751661	    -43.84249434	     10.02207391	    -45.00000000	     45.00000000	    -45.00000000	      5.94212961	   1710.55723465	   1508.58263684	     21.40526986	    179.99999979	   1801.08378763	    179.34036845	     12.27505704	     13.94037865	     18.02979269	     28.21326330	    -45.00000000	    -45.00000000	    -45.00000000	   2229.19330698	  -3858.89031171	     22.86588986	   -179.99999979	    707.28792954	     61.32118997	      5.29935396	     -4.97379444
     10.83000000	    -35.83789637	      7.30477662	     -5.54857982	     67.36414380	    788.68747247	    -43.62306018	     10.48944045	    -45.00000000	     45.00000000	    -45.00000000	      5.94451162	   1710.86977125	   1508.39037547	     21.26753028	    179.99999979	   1801.34204372	    179.56955159	     12.15036151	     13.82919641	     18.44169604	     28.20814061	    -45.00000000	    -45.00000000	    -45.00000000	   2228.89383636	  -3858.82015072	     22.91055910	   -179.99999979	    707.66491967	     63.94691301	      5.38638844	     -4.82976358
     10.84000000	    -35.78380149	      7.40342744	     -5.73714149	     70.36194088	    786.65162231	    -43.39496450	     10.06240588	    -45.00000000	     45.00000000	    -45.00000000	      5.72765295	   1711.43124226	   1508.36504092	     21.17540323	    179.99999979	   1801.43413492	    179.77925136	     12.04708291	     13.75167629	     18.49511124	     28.08771516	    -45.00000000	    -45.00000000	    -45.00000000	   2228.56079256	  -3858.78041730	     22.87776111	   -179.99999979	    707.99908370	     66.68928500	      5.72239482	     -4.86573253
